<svg xmlns="http://www.w3.org/2000/svg" xmlns:xlink="http://www.w3.org/1999/xlink" version="1.1" x="0px" y="0px" width="100px" height="100px" viewBox="0 0 100 100" enable-background="new 0 0 100 100" xml:space="preserve">
<g id="Captions">
</g>
<g id="Your_Icon">
	<polygon fill="#000000" points="10.097,84.003 99.203,84.003 99.203,11.098 83.002,11.098 83.002,19.198 91.103,19.198    91.103,75.902 18.197,75.902 18.197,59.701 10.097,59.701  "/>
	<polygon fill="#000000" points="66.801,11.098 66.801,2.997 58.7,2.997 50.6,2.997 50.6,11.098 42.499,11.098 42.499,19.198    34.398,19.198 34.398,11.098 26.298,11.098 26.298,2.997 18.197,2.997 10.097,2.997 10.097,11.098 1.996,11.098 1.996,19.198    1.996,27.299 1.996,35.399 10.097,35.399 10.097,43.5 18.197,43.5 18.197,51.601 26.298,51.601 26.298,59.701 34.398,59.701    34.398,67.802 42.499,67.802 42.499,59.701 50.6,59.701 50.6,51.601 58.7,51.601 58.7,43.5 66.801,43.5 66.801,35.399    74.901,35.399 74.901,27.299 74.901,19.198 74.901,11.098  "/>
</g>
</svg>